<mxfile host="app.diagrams.net" modified="2024-04-15T07:57:45.490Z" agent="Mozilla/5.0 (Windows NT 10.0; Win64; x64) AppleWebKit/537.36 (KHTML, like Gecko) Chrome/123.0.0.0 Safari/537.36" version="24.2.5" etag="sQw2mQugkc-J-1UT5fEc" type="github">
  <diagram name="Page-1" id="myPlWGL2ZU54U96DTvNk">
    <mxGraphModel>
      <root>
        <mxCell id="0" />
        <mxCell id="1" parent="0" />
      </root>
    </mxGraphModel>
  </diagram>
</mxfile>
